<?xml version="1.0" encoding="UTF-8"?>
<svg xmlns="http://www.w3.org/2000/svg" xmlns:xlink="http://www.w3.org/1999/xlink" width="20px" height="20px" viewBox="0 0 20 20" version="1.1">
<g id="surface1">
<path style=" stroke:none;fill-rule:nonzero;fill:rgb(100%,100%,100%);fill-opacity:1;" d="M 10 20 C 15.523438 20 20 15.523438 20 10 C 20 4.476562 15.523438 0 10 0 C 4.476562 0 0 4.476562 0 10 C 0 15.523438 4.476562 20 10 20 Z M 9.0625 13.4375 L 9.0625 10.9375 L 6.5625 10.9375 C 6.042969 10.9375 5.625 10.519531 5.625 10 C 5.625 9.480469 6.042969 9.0625 6.5625 9.0625 L 9.0625 9.0625 L 9.0625 6.5625 C 9.0625 6.042969 9.480469 5.625 10 5.625 C 10.519531 5.625 10.9375 6.042969 10.9375 6.5625 L 10.9375 9.0625 L 13.4375 9.0625 C 13.957031 9.0625 14.375 9.480469 14.375 10 C 14.375 10.519531 13.957031 10.9375 13.4375 10.9375 L 10.9375 10.9375 L 10.9375 13.4375 C 10.9375 13.957031 10.519531 14.375 10 14.375 C 9.480469 14.375 9.0625 13.957031 9.0625 13.4375 Z M 9.0625 13.4375 "/>
</g>
</svg>
